<?xml version="1.0" standalone="no"?>
<!DOCTYPE svg PUBLIC "-//W3C//DTD SVG 20010904//EN"
 "http://www.w3.org/TR/2001/REC-SVG-20010904/DTD/svg10.dtd">
<svg version="1.0" xmlns="http://www.w3.org/2000/svg"
 width="259.000000pt" height="194.000000pt" viewBox="0 0 259.000000 194.000000"
 preserveAspectRatio="xMidYMid meet">

<g transform="translate(0.000000,194.000000) scale(0.100000,-0.100000)"
fill="#000000" stroke="none">
<path d="M703 1303 c-20 -4 -23 -11 -23 -48 l0 -43 -50 15 c-57 17 -80 12 -80
-15 0 -16 10 -21 51 -26 33 -5 56 -3 65 5 8 6 14 7 14 2 0 -6 -29 -27 -65 -48
-51 -30 -65 -43 -65 -62 0 -17 4 -22 13 -17 6 5 32 21 56 36 25 15 49 28 53
28 4 0 8 -90 8 -201 l0 -200 -22 7 c-45 14 -92 23 -100 18 -4 -3 -8 -14 -8
-24 0 -14 11 -20 43 -26 46 -8 44 -8 70 1 10 4 17 3 17 -4 0 -6 -5 -11 -10
-11 -6 0 -35 -16 -65 -35 -37 -23 -55 -41 -55 -55 0 -11 2 -20 4 -20 2 0 30
16 62 35 l59 36 3 -39 c3 -35 5 -39 28 -34 l24 4 0 364 c0 200 -1 363 -2 363
-2 -1 -13 -4 -25 -6z"/>
<path d="M750 949 l0 -361 23 6 c169 50 373 76 594 76 99 0 328 26 403 45 95
25 191 62 263 102 69 37 69 38 43 49 -24 9 -25 12 -12 23 30 25 15 31 -81 31
-174 0 -344 51 -658 196 -114 52 -206 91 -311 129 -81 29 -127 41 -231 59
l-33 6 0 -361z m203 59 c54 -281 54 -281 32 -276 -11 2 -22 16 -27 36 -8 30
-12 33 -41 30 -29 -3 -32 -6 -38 -45 -6 -50 -12 -58 -35 -49 -11 4 -14 14 -11
29 3 12 18 122 33 245 17 133 33 222 39 222 6 0 27 -86 48 -192z m111 70 c3
-40 7 -89 9 -108 2 -30 6 -35 27 -35 25 0 25 1 25 90 0 73 3 90 15 90 22 0 27
-42 29 -213 1 -141 0 -153 -16 -150 -14 2 -19 16 -23 57 -4 42 -9 56 -25 61
-11 4 -23 6 -27 3 -5 -2 -8 -36 -8 -74 0 -62 -2 -70 -17 -67 -16 3 -19 24 -25
198 -4 107 -6 201 -3 208 2 6 11 12 19 12 11 0 16 -19 20 -72z m266 -46 c67
-67 66 -234 -2 -271 -25 -14 -29 -14 -55 5 -36 27 -55 67 -61 126 -6 66 5 116
33 144 31 31 50 30 85 -4z m111 -72 c12 -33 23 -60 25 -60 2 0 11 18 20 40 15
37 36 51 48 32 2 -4 -5 -28 -16 -52 -12 -25 -24 -70 -27 -100 -5 -41 -10 -56
-23 -58 -15 -3 -18 4 -18 40 -1 24 -14 77 -30 118 -34 85 -36 100 -16 100 9 0
24 -24 37 -60z m159 -75 c0 -51 -3 -65 -15 -65 -12 0 -15 14 -15 65 0 51 3 65
15 65 12 0 15 -14 15 -65z m88 -10 c-3 -28 -11 -24 -13 5 -1 11 2 20 7 20 4 0
7 -11 6 -25z m19 -12 c-3 -10 -5 -4 -5 12 0 17 2 24 5 18 2 -7 2 -21 0 -30z
m27 11 c-4 -38 -14 -42 -14 -6 0 18 4 32 9 32 4 0 7 -12 5 -26z m23 -21 c-3
-10 -5 -4 -5 12 0 17 2 24 5 18 2 -7 2 -21 0 -30z m63 6 c0 -20 -15 -26 -24
-10 -8 13 4 42 15 35 5 -3 9 -14 9 -25z m17 -11 c-3 -7 -5 -2 -5 12 0 14 2 19
5 13 2 -7 2 -19 0 -25z m-87 -37 c0 -11 -4 -23 -10 -26 -6 -4 -10 5 -10 19 0
14 5 26 10 26 6 0 10 -9 10 -19z m17 -18 c-3 -10 -5 -4 -5 12 0 17 2 24 5 18
2 -7 2 -21 0 -30z m33 6 c0 -10 -4 -19 -10 -19 -5 0 -10 12 -10 26 0 14 4 23
10 19 6 -3 10 -15 10 -26z m47 -1 c-3 -7 -5 -2 -5 12 0 14 2 19 5 13 2 -7 2
-19 0 -25z m30 12 c1 -11 -2 -18 -8 -15 -11 7 -12 35 -1 35 4 0 8 -9 9 -20z
m-177 -21 c0 -11 -4 -17 -10 -14 -5 3 -10 15 -10 26 0 11 5 17 10 14 6 -3 10
-15 10 -26z m130 17 c0 -8 -4 -18 -10 -21 -5 -3 -10 3 -10 14 0 12 5 21 10 21
6 0 10 -6 10 -14z m-232 -24 c2 -7 -3 -12 -12 -12 -9 0 -16 7 -16 16 0 17 22
14 28 -4z"/>
<path d="M908 964 c-5 -4 -8 -27 -8 -51 0 -32 4 -43 15 -43 16 0 18 22 6 73
-3 16 -9 25 -13 21z"/>
<path d="M1260 974 c-13 -40 -8 -120 10 -154 6 -11 19 -20 30 -20 38 0 50 133
19 193 -17 30 -46 21 -59 -19z"/>
</g>
</svg>
